<?xml version="1.0" encoding="UTF-8" ?>
<!DOCTYPE svg PUBLIC "-//W3C//DTD SVG 1.1//EN" "http://www.w3.org/Graphics/SVG/1.1/DTD/svg11.dtd">
<svg xmlns="http://www.w3.org/2000/svg" viewBox="0 0 54.56 10.79">
    <defs>
        <style type="text/css">
            .str0 {
                stroke: #ffffff;
                stroke-width: 0.1pt;
                stroke-linejoin: round;
            }

            .fil0 {
                fill: #6fb0e7;
                fill-rule: nonzero
            }

            .fil1 {
                fill: #1F1A17;
                fill-rule: nonzero
            }
        </style>
    </defs>
    <g id="t1">
        <path class="fil0 str0" d="m 3.4203698,4.3502742 0.2257777,-0.2032 c 1.3208,-0.2596444 4.7413334,-0.7224889 4.7413334,-2.5512889 0,-0.60959997 -0.4628445,-1.37724442 -2.4045334,-1.37724442 -1.1740444,0 -3.2850666,0.44026667 -4.3800889,0.85795552 C 1.2190364,1.223252 0.89165863,1.6522298 0.65459197,1.9683187 0.30463641,2.4311631 0.13530307,2.8375631 0.13530307,2.9165853 c 0,0.1919111 0.0903111,0.3048 0.28222223,0.3048 0.12417778,0 0.24835555,-0.045155 0.34995555,-0.079022 C 1.4222364,2.9278742 1.6367253,2.8262742 2.3366364,2.7133853 c 0.1467556,-0.022578 0.4064,-0.090311 0.4064,-0.2596444 0,-0.090311 -0.090311,-0.1354667 -0.1580444,-0.1693333 1.7159111,-0.6208889 2.9125333,-0.7676445 3.1721778,-0.7902223 1.3095111,-0.090311 1.6256,0.3048 1.6368889,0.5531556 0.022578,0.3048 -0.5757334,1.0724444 -3.1270223,1.4224 0.9369778,-1.0950222 1.016,-1.2417778 1.0950223,-1.4336889 -1.1288889,0 -1.8739556,0.9482667 -2.6077334,1.6594667 -0.3386667,0.1016 -1.91911111,0.1241777 -1.91911111,0.6096 0,0.3838222 0.72248891,0.4176889 1.03857781,0.4402666 -1.30951115,1.7272 -1.2530667,1.7836445 -1.2530667,2.1448889 0,1.0272889 1.1288889,1.2982223 1.9416889,1.2530667 3.0367111,-0.1693333 4.4252445,-1.6933333 4.4252445,-2.3368 0,-1.0837333 -2.7657778,-1.3095111 -3.5672889,-1.4562667 z M 2.9236586,4.9147187 c 0.4628445,0 2.7883556,0.1693333 2.7883556,0.7563555 0,0.4515556 -1.5578667,1.1853334 -2.5625778,1.1966223 -0.3612444,0 -1.2530667,-0.1354667 -1.2530667,-0.6208889 0,-0.2370667 0.2483556,-0.4854223 0.3951112,-0.6434667 z" />
        <path class="fil0 str0" d="m 11.039665,4.8921409 0.02258,0.022578 C 8.8270424,7.1724965 8.4770868,7.1386298 8.251309,7.1837854 8.0819757,7.217652 8.0368201,7.014452 8.0255313,6.9580076 c 0,-0.5531556 0.3273777,-1.2417778 3.0141337,-2.0658667 z m -0.6096,1.524 0.02258,0.022578 c -0.146755,0.3048 -0.417689,0.9031111 -0.417689,1.2643555 0,0.3273778 0.169334,0.5983112 0.541867,0.5983112 0.553156,0 2.065867,-1.2079112 2.551289,-1.7610667 L 12.943308,6.0871947 c -0.522695,0.3966791 -1.034395,0.9385464 -1.508528,0.9385464 -0.180623,0 -0.349956,-0.079022 -0.349956,-0.2709333 0,-0.5305778 0.982133,-1.3208 0.982133,-1.6820445 0,-0.2483555 -0.112888,-0.3725333 -0.327377,-0.4628444 0.1016,-0.033867 0.395111,-0.1467556 0.395111,-0.2822222 0,-0.1354667 -0.214489,-0.5531556 -0.733778,-0.5418667 -1.309511,0.033867 -4.2446222,1.4788444 -4.1994666,2.8899555 0.022578,0.5870223 0.6773333,1.3320889 0.9934222,1.3320889 0.2596444,0 0.9821333,-0.5870222 1.1966222,-0.7563555 z" />
        <path class="fil0 str0" d="m 16.258835,3.255252 c 0.112889,-0.1580444 0.440267,-0.5305778 0.440267,-0.7337778 0,-0.1806222 -0.214489,-0.2144889 -0.361245,-0.2144889 -0.654755,0 -0.903111,0.5305778 -1.241778,0.9934223 -1.207911,0.045155 -1.298222,0.2257777 -1.907822,1.2192 l -0.124178,0.2032 c 0.598312,-0.090311 0.383823,-0.045156 1.072445,-0.045156 -0.417689,0.7112 -1.038578,1.2869333 -1.715911,1.8062222 l 0.124178,0.4289778 0.575733,-0.4628444 0.02258,0.022578 c -0.146756,0.3273778 -0.293511,0.7563556 -0.293511,1.1288889 0,0.4515556 0.270933,0.7563556 0.7112,0.7563556 0.959555,0 2.178755,-1.2079111 2.8448,-1.8175111 l -0.05645,-0.4967111 c -1.174044,0.8353777 -1.580444,1.1740444 -1.941689,1.1740444 -0.259644,0 -0.338666,-0.1467555 -0.338666,-0.3951111 0,-0.6773333 0.643466,-1.6030222 1.027288,-2.0997333 1.241778,0.079022 1.332089,-0.3386667 1.862667,-1.4111112 z" />
        <path class="fil0 str0" d="m 17.059995,6.1564965 c 0.722488,-0.7112 4.312355,-4.4365334 4.312355,-5.20417784 0,-0.22577778 -0.3048,-0.3048 -0.485422,-0.3048 -0.383822,0 -2.630311,1.97555554 -3.9624,4.17688894 -0.395111,0.6434666 -0.688622,1.1853333 -0.688622,1.9642666 0,0.2596445 0.05644,1.1401778 0.451555,1.1401778 0.361245,0 0.925689,-1.1966222 2.856089,-2.5174222 l 0.02258,0.022578 c -0.4064,0.5305777 -1.185333,1.3885333 -1.185333,2.0997333 0,0.3048 0.180622,0.5983111 0.519288,0.5983111 0.620889,0 1.986845,-1.1063111 2.506134,-1.5014222 l -0.05645,-0.4628445 c -0.327377,0.2144889 -1.151466,0.8240889 -1.524,0.8240889 -0.135466,0 -0.248355,-0.090311 -0.248355,-0.2370666 0,-0.1128889 -0.03387,-0.1467556 0.666044,-0.9934223 0.135467,-0.1580444 0.587022,-0.6547555 0.587022,-0.8692444 0,-0.2596444 -0.270933,-0.5418667 -0.541866,-0.5418667 -0.620889,0 -2.675467,1.8062223 -3.228622,2.2464889 z" />
        <path class="fil1 str0" d="m 26.423068,5.4227187 0.02258,0.022578 c -0.462845,0.9934222 -1.1176,1.9078222 -1.806222,2.7883555 -1.106312,0.5418667 -2.111023,1.5465778 -2.077156,2.302933 0.01129,0.248356 0.135467,0.474134 0.417689,0.474134 0.767644,0 2.472267,-1.8513781 2.935111,-2.4835559 l 1.817511,-1.2304889 c 1.535289,-1.0385777 1.456267,-1.1288889 1.478845,-1.6256 l -2.483556,1.6030223 -0.02258,-0.022578 c 0.869245,-1.3659556 1.580445,-2.3480889 2.065867,-3.3302223 0.04516,-0.090311 0.158044,-0.2822222 0.158044,-0.3951111 0,-0.1467555 -0.158044,-0.2370666 -0.282222,-0.3048 -0.09031,-0.056444 -0.316089,-0.1919111 -0.417689,-0.1919111 -0.1016,0 -0.191911,0.079022 -0.259644,0.1467556 l -4.131734,3.1383111 c -0.191911,0.1467556 -0.530577,0.3499556 -0.767644,0.3499556 -0.248356,0 -0.338667,-0.1919112 -0.395111,-0.4289778 -0.124178,-0.5644445 1.885244,-3.3189334 5.260622,-4.3123556 l 0.02258,0.022578 -0.474133,0.3838222 c -0.07902,0.056445 -0.3048,0.2144889 -0.3048,0.3273778 0,0.090311 0.05644,0.1580444 0.146755,0.1580444 0.1016,0 0.327378,-0.011289 1.885245,-1.0272889 0.225777,-0.1467555 0.462844,-0.3160888 0.462844,-0.6096 0,-0.21448885 -0.07902,-0.55315552 -0.2032,-0.72248885 C 29.34689,0.28627421 29.222712,0.24111866 29.008224,0.26369644 25.89249,0.61365199 23.849201,2.2053853 23.070268,3.0633409 c -0.654756,0.6773333 -1.388533,1.8739556 -1.388533,2.8448 0,0.7902222 0.372533,1.4788445 1.264355,1.5804445 0.643467,0.079022 1.659467,-0.7337778 2.223911,-1.1514667 z" />
        <path class="fil1 str0" d="m 32.691401,4.8921409 0.02258,0.022578 c -2.2352,2.2577778 -2.585156,2.2239111 -2.810934,2.2690667 -0.169333,0.033867 -0.214489,-0.1693334 -0.225777,-0.2257778 0,-0.5531556 0.327377,-1.2417778 3.014133,-2.0658667 z m -0.6096,1.524 0.02258,0.022578 c -0.146756,0.3048 -0.417689,0.9031111 -0.417689,1.2643555 0,0.3273778 0.169333,0.5983112 0.541866,0.5983112 0.553156,0 2.065867,-1.2079112 2.551289,-1.7610667 l -0.09031,-0.4176889 c -0.485422,0.3273778 -1.128889,0.9031111 -1.603022,0.9031111 -0.180622,0 -0.349956,-0.079022 -0.349956,-0.2709333 0,-0.5305778 0.982134,-1.3208 0.982134,-1.6820445 0,-0.2483555 -0.112889,-0.3725333 -0.327378,-0.4628444 0.1016,-0.033867 0.395111,-0.1467556 0.395111,-0.2822222 0,-0.1354667 -0.214489,-0.5531556 -0.733778,-0.5418667 -1.309511,0.033867 -4.244622,1.4788444 -4.199466,2.8899555 0.02258,0.5870223 0.677333,1.3320889 0.993422,1.3320889 0.259644,0 0.982133,-0.5870222 1.196622,-0.7563555 z" />
        <path class="fil1 str0" d="m 35.923726,4.8131187 c 0.530578,-1.1627556 1.174044,-2.1787556 1.7272,-2.4496889 -0.2032,0.6434666 -0.903111,1.7272 -1.704622,2.4722667 z m 2.201333,1.1966222 c -0.451555,0.4064 -1.3208,1.1288889 -1.941689,1.1288889 -0.3048,0 -0.462844,-0.2257778 -0.564444,-0.4854222 -0.05645,-0.2709334 -0.02258,-0.5870223 0.07902,-0.7789334 2.449689,-2.3706666 2.7432,-3.3640889 2.822222,-4.4365333 0.01129,-0.1467556 -0.03387,-0.4176889 -0.225777,-0.4176889 -0.361245,0 -1.433689,1.0498667 -2.427112,2.2803556 -0.733777,0.9031111 -1.241777,2.1787555 -1.241777,3.3640889 0,0.6660444 0.180622,1.4675555 1.004711,1.4675555 0.970844,0 2.032,-1.1401778 2.652889,-1.7836444 z" />
        <path class="fil1 str0" d="m 39.319215,4.8131187 c 0.530577,-1.1627556 1.174044,-2.1787556 1.7272,-2.4496889 -0.2032,0.6434666 -0.903112,1.7272 -1.704623,2.4722667 z m 2.201333,1.1966222 c -0.451556,0.4064 -1.3208,1.1288889 -1.941689,1.1288889 -0.3048,0 -0.462844,-0.2257778 -0.564444,-0.4854222 -0.05644,-0.2709334 -0.02258,-0.5870223 0.07902,-0.7789334 2.449689,-2.3706666 2.7432,-3.3640889 2.822222,-4.4365333 0.01129,-0.1467556 -0.03387,-0.4176889 -0.225778,-0.4176889 -0.361244,0 -1.433689,1.0498667 -2.427111,2.2803556 -0.733778,0.9031111 -1.241778,2.1787555 -1.241778,3.3640889 0,0.6660444 0.180623,1.4675555 1.004711,1.4675555 0.970845,0 2.032,-1.1401778 2.652889,-1.7836444 z" />
        <path class="fil1 str0" d="m 45.570788,5.9081409 c -0.598311,0.4741333 -1.546577,1.2982222 -2.348088,1.2982222 -0.361245,0 -0.733778,-0.1467555 -0.699912,-0.5757333 l 0.02258,-0.2483556 c 2.167467,-0.7112 2.720622,-1.5465777 2.720622,-2.0997333 0,-0.4515556 -0.451555,-0.5418667 -0.8128,-0.5418667 -1.467555,-0.011289 -3.104444,1.5014223 -3.059289,2.9802667 0.02258,0.7450667 0.406401,1.4788445 1.230489,1.4788445 1.1176,0 2.359378,-1.0611556 3.048,-1.8626667 z M 42.6131,5.8291187 c 0.3048,-0.7450667 0.959555,-1.2869334 1.524,-1.4336889 0.07902,-0.022578 0.135466,0.045156 0.135466,0.1241778 0.01129,0.1919111 -0.666044,0.9708444 -1.659466,1.3095111 z" />
        <path class="fil1 str0" d="m 47.483374,5.3098298 0.02258,0.022578 c -0.451556,0.5418666 -1.038578,1.1401777 -1.038578,1.9078222 0,0.4289778 0.293511,0.8692444 0.767645,0.8692444 0.643466,0 1.941688,-1.2530666 2.370666,-1.7384889 l -0.07902,-0.4176888 c -0.372533,0.2822222 -1.083733,1.016 -1.569156,1.016 -0.169333,0 -0.349955,-0.1354667 -0.349955,-0.3160889 0,-0.4515556 0.553155,-1.0047111 0.880533,-1.2869334 0.259645,-0.2144889 0.474134,-0.3838222 0.474134,-0.7337777 -0.02258,-0.2032 -0.1016,-0.3838223 -0.270934,-0.5983112 -0.112889,-0.1354666 -0.733778,0 -1.794933,0.1467556 0.04516,-0.1016 0.07902,-0.2032 0.07902,-0.3160889 0,-0.1016 -0.09031,-0.1919111 -0.2032,-0.1919111 -0.270933,0 -1.4224,0.8128 -1.4224,1.6256 0,0.2370667 0.06773,0.3273778 0.3048,0.3499556 -0.214489,0.3048 -0.451555,0.5870222 -0.745067,0.8240888 l 0.04516,0.4967112 C 45.440085,6.4838742 45.914219,6.1903631 46.30933,5.5694742 Z" />
        <path class="fil1 str0" d="m 54.693093,6.1564965 -0.09031,-0.4176889 -2.506134,2.2239111 -0.02258,-0.022578 1.670755,-2.4835556 c 0.158045,-0.2370666 0.462845,-0.6999111 0.462845,-0.9934222 0,-0.1580444 -0.112889,-0.5983111 -0.3048,-0.5644444 -0.214489,0.033867 -0.936978,0.8128 -2.099734,1.8852444 -0.474133,0.4402667 -1.016,0.9256889 -1.614311,0.9934222 0.01129,-0.2370666 0.07902,-0.4628444 0.214489,-0.6547555 0.372533,-0.2935111 1.648178,-1.4675556 1.648178,-1.8965333 0,-0.1580445 -0.316089,-0.5192889 -0.485422,-0.5192889 -0.316089,0.011289 -2.246489,1.4449777 -2.201334,2.7996444 0.03387,0.8353778 0.575734,1.3095111 0.891823,1.3320889 0.135466,0.011289 0.959555,-0.5983111 1.885244,-1.3772444 l 0.02258,0.022578 -1.512711,2.5512889 c -0.09031,0.1467556 -0.3048,0.4967111 -0.3048,0.6773334 0,0.1919111 0.1016,0.7450665 0.338666,0.7450665 0.180623,0 0.496711,-0.440267 0.6096,-0.5644443 z" />
    </g>
</svg>